<svg width="200" height="200" viewBox="0 0 200 200" xmlns="http://www.w3.org/2000/svg">
  <defs>
    <style>
      .sunburst { fill: none; stroke: #9B4D7A; stroke-width: 6; stroke-linecap: round; }
    </style>
  </defs>
  <!-- Center circle -->
  <circle cx="100" cy="100" r="20" fill="white" stroke="#9B4D7A" stroke-width="2"/>

  <!-- Sunburst rays (radiating lines from center) -->
  <g class="sunburst">
    <!-- Top rays -->
    <line x1="100" y1="30" x2="100" y2="70" />
    <line x1="85" y1="32" x2="92" y2="72" />
    <line x1="115" y1="32" x2="108" y2="72" />
    <line x1="70" y1="38" x2="84" y2="76" />
    <line x1="130" y1="38" x2="116" y2="76" />

    <!-- Upper diagonal rays -->
    <line x1="55" y1="48" x2="76" y2="82" />
    <line x1="145" y1="48" x2="124" y2="82" />
    <line x1="43" y1="62" x2="70" y2="88" />
    <line x1="157" y1="62" x2="130" y2="88" />

    <!-- Side rays -->
    <line x1="30" y1="85" x2="72" y2="92" />
    <line x1="170" y1="85" x2="128" y2="92" />
    <line x1="30" y1="100" x2="70" y2="100" />
    <line x1="170" y1="100" x2="130" y2="100" />
    <line x1="30" y1="115" x2="72" y2="108" />
    <line x1="170" y1="115" x2="128" y2="108" />

    <!-- Lower diagonal rays -->
    <line x1="43" y1="138" x2="70" y2="112" />
    <line x1="157" y1="138" x2="130" y2="112" />
    <line x1="55" y1="152" x2="76" y2="118" />
    <line x1="145" y1="152" x2="124" y2="118" />

    <!-- Bottom rays -->
    <line x1="70" y1="162" x2="84" y2="124" />
    <line x1="130" y1="162" x2="116" y2="124" />
    <line x1="85" y1="168" x2="92" y2="128" />
    <line x1="115" y1="168" x2="108" y2="128" />
    <line x1="100" y1="170" x2="100" y2="130" />

    <!-- Additional rays for fuller effect -->
    <line x1="38" y1="70" x2="68" y2="84" />
    <line x1="162" y1="70" x2="132" y2="84" />
    <line x1="38" y1="130" x2="68" y2="116" />
    <line x1="162" y1="130" x2="132" y2="116" />
  </g>
</svg>
